<svg xmlns="http://www.w3.org/2000/svg" viewBox="0 0 32 32" width="32" height="32">
  <!-- Badged like every other mark in this folder: the official three-bar
       artwork is bare on a transparent canvas, so on its own a circular clip
       sliced its corners off. It carries its own disc instead. -->
  <linearGradient id="solg" gradientUnits="userSpaceOnUse" x1="360.879" y1="351.455" x2="141.213" y2="-69.294" gradientTransform="matrix(1 0 0 -1 0 314)">
    <stop offset="0" stop-color="#00FFA3"/>
    <stop offset="1" stop-color="#DC1FFF"/>
  </linearGradient>
  <circle cx="16" cy="16" r="16" fill="#0B0F17"/>
  <g transform="translate(6 8.17) scale(0.0502891)">
    <path fill="url(#solg)" d="M64.6 237.9c2.4-2.4 5.7-3.8 9.2-3.8h317.4c5.8 0 8.7 7 4.6 11.1l-62.7 62.7c-2.4 2.4-5.7 3.8-9.2 3.8H6.5c-5.8 0-8.7-7-4.6-11.1l62.7-62.7z"/>
    <path fill="url(#solg)" d="M64.6 3.8C67.1 1.4 70.4 0 73.8 0h317.4c5.8 0 8.7 7 4.6 11.1l-62.7 62.7c-2.4 2.4-5.7 3.8-9.2 3.8H6.5c-5.8 0-8.7-7-4.6-11.1L64.6 3.8z"/>
    <path fill="url(#solg)" d="M333.1 120.1c-2.4-2.4-5.7-3.8-9.2-3.8H6.5c-5.8 0-8.7 7-4.6 11.1l62.7 62.7c2.4 2.4 5.7 3.8 9.2 3.8h317.4c5.8 0 8.7-7 4.6-11.1l-62.7-62.7z"/>
  </g>
</svg>
